<mxfile host="app.diagrams.net" modified="2024-08-10T16:23:14.445Z" agent="Mozilla/5.0 (Windows NT 10.0; Win64; x64) AppleWebKit/537.36 (KHTML, like Gecko) Chrome/127.0.0.0 Safari/537.36 Edg/127.0.0.0" etag="lB9Ktf6ttkGXsRTFS0RR" version="24.2.7" type="device">
  <diagram name="Page-1" id="n94dvHXvI3sX9w5dKe3G">
    <mxGraphModel dx="1042" dy="710" grid="1" gridSize="10" guides="1" tooltips="1" connect="1" arrows="1" fold="1" page="1" pageScale="1" pageWidth="850" pageHeight="1100" math="0" shadow="0">
      <root>
        <mxCell id="0" />
        <mxCell id="1" parent="0" />
        <mxCell id="5EwJE2acii5fA7w8sb7V-28" style="edgeStyle=orthogonalEdgeStyle;rounded=0;orthogonalLoop=1;jettySize=auto;html=1;exitX=0;exitY=0.5;exitDx=0;exitDy=0;entryX=0.5;entryY=0;entryDx=0;entryDy=0;endArrow=none;endFill=0;fontSize=14;fontFamily=Montserrat;fontSource=https%3A%2F%2Ffonts.googleapis.com%2Fcss%3Ffamily%3DMontserrat;" edge="1" parent="1" source="5EwJE2acii5fA7w8sb7V-1" target="5EwJE2acii5fA7w8sb7V-14">
          <mxGeometry relative="1" as="geometry" />
        </mxCell>
        <mxCell id="5EwJE2acii5fA7w8sb7V-29" style="edgeStyle=orthogonalEdgeStyle;rounded=0;orthogonalLoop=1;jettySize=auto;html=1;exitX=0;exitY=0.5;exitDx=0;exitDy=0;entryX=0.5;entryY=0;entryDx=0;entryDy=0;endArrow=none;endFill=0;fontSize=14;fontFamily=Montserrat;fontSource=https%3A%2F%2Ffonts.googleapis.com%2Fcss%3Ffamily%3DMontserrat;" edge="1" parent="1" source="5EwJE2acii5fA7w8sb7V-1" target="5EwJE2acii5fA7w8sb7V-16">
          <mxGeometry relative="1" as="geometry" />
        </mxCell>
        <mxCell id="5EwJE2acii5fA7w8sb7V-30" value="ArgoConnect" style="edgeStyle=orthogonalEdgeStyle;rounded=0;orthogonalLoop=1;jettySize=auto;html=1;exitX=0;exitY=0.5;exitDx=0;exitDy=0;entryX=0.5;entryY=0;entryDx=0;entryDy=0;endArrow=none;endFill=0;fontSize=14;fontFamily=Montserrat;fontSource=https%3A%2F%2Ffonts.googleapis.com%2Fcss%3Ffamily%3DMontserrat;" edge="1" parent="1" source="5EwJE2acii5fA7w8sb7V-1" target="5EwJE2acii5fA7w8sb7V-7">
          <mxGeometry x="-0.2836" relative="1" as="geometry">
            <mxPoint as="offset" />
          </mxGeometry>
        </mxCell>
        <mxCell id="5EwJE2acii5fA7w8sb7V-1" value="ArgoHub" style="rounded=0;whiteSpace=wrap;html=1;strokeWidth=3;fillColor=#dae8fc;strokeColor=#6c8ebf;fontSize=14;fontFamily=Montserrat;fontSource=https%3A%2F%2Ffonts.googleapis.com%2Fcss%3Ffamily%3DMontserrat;fontStyle=1" vertex="1" parent="1">
          <mxGeometry x="640" y="260" width="120" height="60" as="geometry" />
        </mxCell>
        <mxCell id="5EwJE2acii5fA7w8sb7V-17" style="edgeStyle=orthogonalEdgeStyle;rounded=0;orthogonalLoop=1;jettySize=auto;html=1;exitX=0.25;exitY=1;exitDx=0;exitDy=0;entryX=0;entryY=0.5;entryDx=0;entryDy=0;endArrow=none;endFill=0;fontSize=14;fontFamily=Montserrat;fontSource=https%3A%2F%2Ffonts.googleapis.com%2Fcss%3Ffamily%3DMontserrat;" edge="1" parent="1" source="5EwJE2acii5fA7w8sb7V-2" target="5EwJE2acii5fA7w8sb7V-4">
          <mxGeometry relative="1" as="geometry" />
        </mxCell>
        <mxCell id="5EwJE2acii5fA7w8sb7V-31" style="edgeStyle=orthogonalEdgeStyle;rounded=0;orthogonalLoop=1;jettySize=auto;html=1;exitX=0.5;exitY=0;exitDx=0;exitDy=0;entryX=0.5;entryY=1;entryDx=0;entryDy=0;endArrow=none;endFill=0;strokeWidth=3;fontSize=14;fontFamily=Montserrat;fontSource=https%3A%2F%2Ffonts.googleapis.com%2Fcss%3Ffamily%3DMontserrat;" edge="1" parent="1" source="5EwJE2acii5fA7w8sb7V-2" target="5EwJE2acii5fA7w8sb7V-1">
          <mxGeometry relative="1" as="geometry" />
        </mxCell>
        <mxCell id="5EwJE2acii5fA7w8sb7V-2" value="ArgoPower" style="rounded=0;whiteSpace=wrap;html=1;strokeWidth=3;fillColor=#dae8fc;strokeColor=#6c8ebf;fontSize=14;fontFamily=Montserrat;fontSource=https%3A%2F%2Ffonts.googleapis.com%2Fcss%3Ffamily%3DMontserrat;fontStyle=1" vertex="1" parent="1">
          <mxGeometry x="640" y="380" width="120" height="60" as="geometry" />
        </mxCell>
        <mxCell id="5EwJE2acii5fA7w8sb7V-4" value="Battery" style="rounded=0;whiteSpace=wrap;html=1;fontSize=14;fontFamily=Montserrat;fontSource=https%3A%2F%2Ffonts.googleapis.com%2Fcss%3Ffamily%3DMontserrat;" vertex="1" parent="1">
          <mxGeometry x="700" y="460" width="120" height="60" as="geometry" />
        </mxCell>
        <mxCell id="5EwJE2acii5fA7w8sb7V-32" style="edgeStyle=orthogonalEdgeStyle;rounded=0;orthogonalLoop=1;jettySize=auto;html=1;exitX=0.5;exitY=1;exitDx=0;exitDy=0;entryX=0.5;entryY=0;entryDx=0;entryDy=0;endArrow=none;endFill=0;fontSize=14;fontFamily=Montserrat;fontSource=https%3A%2F%2Ffonts.googleapis.com%2Fcss%3Ffamily%3DMontserrat;" edge="1" parent="1" source="5EwJE2acii5fA7w8sb7V-5" target="5EwJE2acii5fA7w8sb7V-10">
          <mxGeometry relative="1" as="geometry" />
        </mxCell>
        <mxCell id="5EwJE2acii5fA7w8sb7V-5" value="Raspberry Pi 4" style="rounded=0;whiteSpace=wrap;html=1;fontSize=14;fontFamily=Montserrat;fontSource=https%3A%2F%2Ffonts.googleapis.com%2Fcss%3Ffamily%3DMontserrat;" vertex="1" parent="1">
          <mxGeometry x="100" y="460" width="120" height="60" as="geometry" />
        </mxCell>
        <mxCell id="5EwJE2acii5fA7w8sb7V-11" style="edgeStyle=orthogonalEdgeStyle;rounded=0;orthogonalLoop=1;jettySize=auto;html=1;exitX=0.25;exitY=1;exitDx=0;exitDy=0;entryX=0;entryY=0.5;entryDx=0;entryDy=0;endArrow=none;endFill=0;fontSize=14;fontFamily=Montserrat;fontSource=https%3A%2F%2Ffonts.googleapis.com%2Fcss%3Ffamily%3DMontserrat;" edge="1" parent="1" source="5EwJE2acii5fA7w8sb7V-7" target="5EwJE2acii5fA7w8sb7V-5">
          <mxGeometry relative="1" as="geometry" />
        </mxCell>
        <mxCell id="5EwJE2acii5fA7w8sb7V-12" style="edgeStyle=orthogonalEdgeStyle;rounded=0;orthogonalLoop=1;jettySize=auto;html=1;exitX=0.25;exitY=1;exitDx=0;exitDy=0;entryX=0;entryY=0.5;entryDx=0;entryDy=0;endArrow=none;endFill=0;fontSize=14;fontFamily=Montserrat;fontSource=https%3A%2F%2Ffonts.googleapis.com%2Fcss%3Ffamily%3DMontserrat;" edge="1" parent="1" source="5EwJE2acii5fA7w8sb7V-7" target="5EwJE2acii5fA7w8sb7V-8">
          <mxGeometry relative="1" as="geometry" />
        </mxCell>
        <mxCell id="5EwJE2acii5fA7w8sb7V-7" value="ArgoPi" style="rounded=0;whiteSpace=wrap;html=1;strokeWidth=3;fillColor=#dae8fc;strokeColor=#6c8ebf;fontSize=14;fontFamily=Montserrat;fontSource=https%3A%2F%2Ffonts.googleapis.com%2Fcss%3Ffamily%3DMontserrat;fontStyle=1" vertex="1" parent="1">
          <mxGeometry x="40" y="380" width="120" height="60" as="geometry" />
        </mxCell>
        <mxCell id="5EwJE2acii5fA7w8sb7V-8" value="RPLiDAR-&lt;span style=&quot;background-color: initial; font-size: 14px;&quot;&gt;C1&lt;/span&gt;" style="rounded=0;whiteSpace=wrap;html=1;fontSize=14;fontFamily=Montserrat;fontSource=https%3A%2F%2Ffonts.googleapis.com%2Fcss%3Ffamily%3DMontserrat;" vertex="1" parent="1">
          <mxGeometry x="100" y="620" width="120" height="60" as="geometry" />
        </mxCell>
        <mxCell id="5EwJE2acii5fA7w8sb7V-10" value="Pi Camera" style="rounded=0;whiteSpace=wrap;html=1;fontSize=14;fontFamily=Montserrat;fontSource=https%3A%2F%2Ffonts.googleapis.com%2Fcss%3Ffamily%3DMontserrat;" vertex="1" parent="1">
          <mxGeometry x="100" y="540" width="120" height="60" as="geometry" />
        </mxCell>
        <mxCell id="5EwJE2acii5fA7w8sb7V-21" style="edgeStyle=orthogonalEdgeStyle;rounded=0;orthogonalLoop=1;jettySize=auto;html=1;exitX=0.25;exitY=1;exitDx=0;exitDy=0;entryX=0;entryY=0.5;entryDx=0;entryDy=0;endArrow=none;endFill=0;fontSize=14;fontFamily=Montserrat;fontSource=https%3A%2F%2Ffonts.googleapis.com%2Fcss%3Ffamily%3DMontserrat;" edge="1" parent="1" source="5EwJE2acii5fA7w8sb7V-14" target="5EwJE2acii5fA7w8sb7V-20">
          <mxGeometry relative="1" as="geometry" />
        </mxCell>
        <mxCell id="5EwJE2acii5fA7w8sb7V-14" value="ArgoDrive" style="rounded=0;whiteSpace=wrap;html=1;strokeWidth=3;fillColor=#dae8fc;strokeColor=#6c8ebf;fontSize=14;fontFamily=Montserrat;fontSource=https%3A%2F%2Ffonts.googleapis.com%2Fcss%3Ffamily%3DMontserrat;fontStyle=1" vertex="1" parent="1">
          <mxGeometry x="440" y="380" width="120" height="60" as="geometry" />
        </mxCell>
        <mxCell id="5EwJE2acii5fA7w8sb7V-19" style="edgeStyle=orthogonalEdgeStyle;rounded=0;orthogonalLoop=1;jettySize=auto;html=1;exitX=0.25;exitY=1;exitDx=0;exitDy=0;entryX=0;entryY=0.5;entryDx=0;entryDy=0;endArrow=none;endFill=0;fontSize=14;fontFamily=Montserrat;fontSource=https%3A%2F%2Ffonts.googleapis.com%2Fcss%3Ffamily%3DMontserrat;" edge="1" parent="1" source="5EwJE2acii5fA7w8sb7V-16" target="5EwJE2acii5fA7w8sb7V-18">
          <mxGeometry relative="1" as="geometry" />
        </mxCell>
        <mxCell id="5EwJE2acii5fA7w8sb7V-16" value="ArgoDrive" style="rounded=0;whiteSpace=wrap;html=1;strokeWidth=3;fillColor=#dae8fc;strokeColor=#6c8ebf;fontSize=14;fontFamily=Montserrat;fontSource=https%3A%2F%2Ffonts.googleapis.com%2Fcss%3Ffamily%3DMontserrat;fontStyle=1" vertex="1" parent="1">
          <mxGeometry x="240" y="380" width="120" height="60" as="geometry" />
        </mxCell>
        <mxCell id="5EwJE2acii5fA7w8sb7V-18" value="Motor" style="rounded=0;whiteSpace=wrap;html=1;fontSize=14;fontFamily=Montserrat;fontSource=https%3A%2F%2Ffonts.googleapis.com%2Fcss%3Ffamily%3DMontserrat;" vertex="1" parent="1">
          <mxGeometry x="300" y="460" width="120" height="60" as="geometry" />
        </mxCell>
        <mxCell id="5EwJE2acii5fA7w8sb7V-20" value="Motor" style="rounded=0;whiteSpace=wrap;html=1;fontSize=14;fontFamily=Montserrat;fontSource=https%3A%2F%2Ffonts.googleapis.com%2Fcss%3Ffamily%3DMontserrat;" vertex="1" parent="1">
          <mxGeometry x="500" y="460" width="120" height="60" as="geometry" />
        </mxCell>
      </root>
    </mxGraphModel>
  </diagram>
</mxfile>
